<svg width="579" height="604" viewBox="0 0 579 604" fill="none" xmlns="http://www.w3.org/2000/svg">
<mask id="path-1-inside-1_75_63" fill="white">
<path d="M273.567 196.902V216.028H296.2C305.701 216.028 312.854 215.748 317.66 215.189C322.577 214.518 325.986 213.511 327.886 212.169C329.786 210.827 330.736 208.87 330.736 206.297C330.736 203.837 329.842 201.935 328.054 200.593C326.266 199.251 322.913 198.3 317.995 197.741C313.077 197.182 305.812 196.902 296.2 196.902H273.567Z"/>
<path d="M475.052 246.729C469.575 251.427 460.634 253.775 448.228 253.775C435.933 253.775 427.048 251.371 421.571 246.561C416.095 241.752 413.357 234.37 413.357 224.416C413.357 214.574 416.095 207.248 421.571 202.439C427.048 197.629 435.933 195.225 448.228 195.225C460.634 195.225 469.575 197.629 475.052 202.439C480.529 207.248 483.267 214.574 483.267 224.416C483.267 234.482 480.529 241.92 475.052 246.729Z"/>
<path d="M475.309 513.729C469.861 518.427 460.968 520.776 448.628 520.776C436.399 520.776 427.562 518.371 422.114 513.561C416.667 508.752 413.943 501.37 413.943 491.416C413.943 481.574 416.667 474.248 422.114 469.439C427.562 464.629 436.399 462.225 448.628 462.225C460.968 462.225 469.861 464.629 475.309 469.439C480.756 474.248 483.479 481.574 483.479 491.416C483.479 501.482 480.756 508.92 475.309 513.729Z"/>
<path fill-rule="evenodd" clip-rule="evenodd" d="M310 32H69L16 155L69 301.5L0.5 511L69 571L551 604L578.5 301.5L551 32L444.5 0L310 32ZM362.31 49H324.098V107.263C324.098 112.067 323.687 116.003 322.866 119.069C322.147 122.136 319.733 124.947 315.624 127.502C311.515 129.955 305.044 131.182 296.21 131.182C288.096 131.182 282.189 129.955 278.492 127.502C274.896 125.049 272.739 122.442 272.02 119.682C271.404 116.82 271.096 113.141 271.096 108.643V49H232.885V111.096C232.679 126.327 237.045 138.644 245.981 148.047C254.918 157.349 271.507 162 295.748 162C319.681 162 336.681 157.094 346.748 147.281C356.917 137.468 362.104 125.049 362.31 110.023V49ZM227.192 104.81C227.192 85.0823 227.552 66.5812 228.271 49.3067H190.522L193.141 135.322L155.7 49.3067H99C99.8217 69.1366 100.233 87.6377 100.233 104.81C100.233 122.085 99.8217 140.637 99 160.467H138.598L135.824 76.7517L173.111 160.467H228.271C227.552 143.192 227.192 124.64 227.192 104.81ZM523 160.467H483.094L480.629 81.0448L465.221 160.467H424.853L409.137 81.6581L406.826 160.467H366.92L378.938 49.1533H431.324L444.729 121.676L456.439 49.1533H510.982L523 160.467ZM228.941 253.775C209.829 254.782 179.037 255.397 136.566 255.621V238.173C141.93 238.061 149.866 238.005 160.372 238.005C178.143 238.005 196.529 238.341 215.529 239.012V210.156C196.529 210.827 178.143 211.162 160.372 211.162C149.866 211.162 141.93 211.107 136.566 210.995V194.889H227.264V164.523H97C97.8941 186.221 98.3412 206.521 98.3412 225.423C98.3412 244.325 97.8941 264.624 97 286.322H227.264C227.264 278.941 227.32 272.845 227.432 268.036C227.656 263.115 228.159 258.361 228.941 253.775ZM368.625 205.123C368.625 214.853 366.222 223.074 361.416 229.785C356.722 236.495 348.619 241.361 337.107 244.38C338.448 246.17 339.398 247.568 339.957 248.575L367.116 286.322H321.516C316.598 277.151 308.83 264.177 298.212 247.4H273.567V286.322H234.002C234.896 264.624 235.343 244.325 235.343 225.423C235.343 206.521 234.896 186.221 234.002 164.523H273.567V164.691H307.936C330.513 164.691 346.272 168.326 355.213 175.596C364.155 182.866 368.625 192.708 368.625 205.123ZM391.73 271.391C403.8 282.464 422.633 288 448.228 288C474.158 288 493.102 282.464 505.061 271.391C517.02 260.318 523 244.66 523 224.416C523 204.508 516.965 188.961 504.894 177.777C492.935 166.592 474.046 161 448.228 161C422.521 161 403.633 166.592 391.562 177.777C379.603 188.961 373.623 204.508 373.623 224.416C373.623 244.548 379.659 260.207 391.73 271.391ZM172.649 349.585H251.053V426.151H218.736L214.881 393.416C211.208 405.129 204.659 413.821 195.234 419.493C185.808 425.164 174.302 428 160.714 428C148.351 428 137.334 425.226 127.664 419.678C118.116 414.129 110.587 406.177 105.079 395.82C99.693 385.464 97 373.381 97 359.572C97 337.502 103.549 320.056 116.647 307.234C129.745 294.411 150.126 288 177.79 288C193.581 288 207.475 290.589 219.471 295.768C231.589 300.946 241.872 308.96 250.318 319.81C244.81 322.646 234.038 328.317 218.002 336.824L213.412 339.413C208.638 334.605 203.068 331.03 196.703 328.687C190.337 326.221 183.605 324.988 176.505 324.988C164.754 324.988 156.001 328.132 150.248 334.42C144.495 340.585 141.618 348.229 141.618 357.353C141.618 367.216 144.679 375.169 150.799 381.21C157.042 387.251 166.529 390.272 179.259 390.272C184.768 390.272 190.093 389.471 195.234 387.868C200.497 386.265 204.904 383.491 208.454 379.546H172.649V349.585ZM330.915 327.392C337.892 327.516 348.664 327.947 363.231 328.687V291.884H256.551V328.687C270.628 327.947 281.339 327.516 288.683 327.392V390.642C281.339 390.519 270.628 390.087 256.551 389.347V426.151H363.231V389.347C348.787 390.087 338.015 390.519 330.915 390.642V327.392ZM477.464 291.699H523V365.305C522.755 383.429 516.573 398.409 504.455 410.246C492.459 422.082 472.2 428 443.679 428C414.79 428 395.021 422.39 384.371 411.17C373.721 399.827 368.519 384.971 368.764 366.6V291.699H414.3V363.641C414.3 369.066 414.667 373.504 415.402 376.956C416.259 380.285 418.829 383.429 423.114 386.388C427.52 389.347 434.559 390.827 444.229 390.827C454.757 390.827 462.468 389.347 467.365 386.388C472.261 383.306 475.138 379.915 475.995 376.217C476.974 372.518 477.464 367.771 477.464 361.976V291.699ZM106.338 522.956C103.892 527.878 100.78 533.19 97 538.894C107.228 544.151 118.734 548.177 131.518 550.974C144.302 553.658 156.864 555 169.204 555C192.216 555 209.392 551.589 220.731 544.766C232.07 537.832 237.74 526.535 237.74 510.877C237.74 499.693 232.404 491.416 221.731 486.048C211.059 480.567 193.939 477.827 170.371 477.827C160.811 477.827 153.474 477.044 148.36 475.478C143.357 473.801 140.856 471.62 140.856 468.935C140.856 466.251 142.69 464.238 146.359 462.896C150.028 461.442 157.142 460.715 167.703 460.715C176.486 460.715 186.602 462.28 198.053 465.412C209.503 468.432 218.063 472.235 223.733 476.82C224.177 475.702 224.733 474.024 225.4 471.787C228.957 461.162 232.348 452.159 235.572 444.777C225.789 439.632 214.783 435.605 202.555 432.697C190.437 429.678 178.598 428.168 167.036 428.168C147.137 428.168 130.962 431.747 118.511 438.905C106.06 446.063 99.8348 457.192 99.8348 472.291C99.8348 482.916 104.949 490.633 115.176 495.443C125.404 500.14 141.857 502.489 164.535 502.489C185.213 502.489 195.551 505.9 195.551 512.723C195.551 514.624 193.661 516.413 189.882 518.091C186.102 519.657 179.598 520.44 170.371 520.44C161.367 520.44 151.64 519.154 141.19 516.581C130.74 514.009 121.568 510.43 113.675 505.844C111.341 512.331 108.895 518.035 106.338 522.956ZM378.195 466.72C361.123 466.181 344.531 465.857 328.418 465.748V553.322H286.73V465.748C270.166 465.86 253.268 466.195 236.037 466.754V431.523H379.278V463.821C382.246 456.475 386.575 450.127 392.265 444.777C404.272 433.592 423.059 428 448.628 428C474.308 428 493.096 433.592 504.991 444.777C516.997 455.961 523 471.508 523 491.416C523 511.66 517.052 527.318 505.157 538.391C493.262 549.464 474.419 555 448.628 555C423.17 555 404.438 549.464 392.432 538.391C380.426 527.207 374.423 511.548 374.423 491.416C374.423 482.262 375.68 474.03 378.195 466.72Z"/>
</mask>
<path d="M273.567 196.902V216.028H296.2C305.701 216.028 312.854 215.748 317.66 215.189C322.577 214.518 325.986 213.511 327.886 212.169C329.786 210.827 330.736 208.87 330.736 206.297C330.736 203.837 329.842 201.935 328.054 200.593C326.266 199.251 322.913 198.3 317.995 197.741C313.077 197.182 305.812 196.902 296.2 196.902H273.567Z" fill="white"/>
<path d="M475.052 246.729C469.575 251.427 460.634 253.775 448.228 253.775C435.933 253.775 427.048 251.371 421.571 246.561C416.095 241.752 413.357 234.37 413.357 224.416C413.357 214.574 416.095 207.248 421.571 202.439C427.048 197.629 435.933 195.225 448.228 195.225C460.634 195.225 469.575 197.629 475.052 202.439C480.529 207.248 483.267 214.574 483.267 224.416C483.267 234.482 480.529 241.92 475.052 246.729Z" fill="white"/>
<path d="M475.309 513.729C469.861 518.427 460.968 520.776 448.628 520.776C436.399 520.776 427.562 518.371 422.114 513.561C416.667 508.752 413.943 501.37 413.943 491.416C413.943 481.574 416.667 474.248 422.114 469.439C427.562 464.629 436.399 462.225 448.628 462.225C460.968 462.225 469.861 464.629 475.309 469.439C480.756 474.248 483.479 481.574 483.479 491.416C483.479 501.482 480.756 508.92 475.309 513.729Z" fill="white"/>
<path fill-rule="evenodd" clip-rule="evenodd" d="M310 32H69L16 155L69 301.5L0.5 511L69 571L551 604L578.5 301.5L551 32L444.5 0L310 32ZM362.31 49H324.098V107.263C324.098 112.067 323.687 116.003 322.866 119.069C322.147 122.136 319.733 124.947 315.624 127.502C311.515 129.955 305.044 131.182 296.21 131.182C288.096 131.182 282.189 129.955 278.492 127.502C274.896 125.049 272.739 122.442 272.02 119.682C271.404 116.82 271.096 113.141 271.096 108.643V49H232.885V111.096C232.679 126.327 237.045 138.644 245.981 148.047C254.918 157.349 271.507 162 295.748 162C319.681 162 336.681 157.094 346.748 147.281C356.917 137.468 362.104 125.049 362.31 110.023V49ZM227.192 104.81C227.192 85.0823 227.552 66.5812 228.271 49.3067H190.522L193.141 135.322L155.7 49.3067H99C99.8217 69.1366 100.233 87.6377 100.233 104.81C100.233 122.085 99.8217 140.637 99 160.467H138.598L135.824 76.7517L173.111 160.467H228.271C227.552 143.192 227.192 124.64 227.192 104.81ZM523 160.467H483.094L480.629 81.0448L465.221 160.467H424.853L409.137 81.6581L406.826 160.467H366.92L378.938 49.1533H431.324L444.729 121.676L456.439 49.1533H510.982L523 160.467ZM228.941 253.775C209.829 254.782 179.037 255.397 136.566 255.621V238.173C141.93 238.061 149.866 238.005 160.372 238.005C178.143 238.005 196.529 238.341 215.529 239.012V210.156C196.529 210.827 178.143 211.162 160.372 211.162C149.866 211.162 141.93 211.107 136.566 210.995V194.889H227.264V164.523H97C97.8941 186.221 98.3412 206.521 98.3412 225.423C98.3412 244.325 97.8941 264.624 97 286.322H227.264C227.264 278.941 227.32 272.845 227.432 268.036C227.656 263.115 228.159 258.361 228.941 253.775ZM368.625 205.123C368.625 214.853 366.222 223.074 361.416 229.785C356.722 236.495 348.619 241.361 337.107 244.38C338.448 246.17 339.398 247.568 339.957 248.575L367.116 286.322H321.516C316.598 277.151 308.83 264.177 298.212 247.4H273.567V286.322H234.002C234.896 264.624 235.343 244.325 235.343 225.423C235.343 206.521 234.896 186.221 234.002 164.523H273.567V164.691H307.936C330.513 164.691 346.272 168.326 355.213 175.596C364.155 182.866 368.625 192.708 368.625 205.123ZM391.73 271.391C403.8 282.464 422.633 288 448.228 288C474.158 288 493.102 282.464 505.061 271.391C517.02 260.318 523 244.66 523 224.416C523 204.508 516.965 188.961 504.894 177.777C492.935 166.592 474.046 161 448.228 161C422.521 161 403.633 166.592 391.562 177.777C379.603 188.961 373.623 204.508 373.623 224.416C373.623 244.548 379.659 260.207 391.73 271.391ZM172.649 349.585H251.053V426.151H218.736L214.881 393.416C211.208 405.129 204.659 413.821 195.234 419.493C185.808 425.164 174.302 428 160.714 428C148.351 428 137.334 425.226 127.664 419.678C118.116 414.129 110.587 406.177 105.079 395.82C99.693 385.464 97 373.381 97 359.572C97 337.502 103.549 320.056 116.647 307.234C129.745 294.411 150.126 288 177.79 288C193.581 288 207.475 290.589 219.471 295.768C231.589 300.946 241.872 308.96 250.318 319.81C244.81 322.646 234.038 328.317 218.002 336.824L213.412 339.413C208.638 334.605 203.068 331.03 196.703 328.687C190.337 326.221 183.605 324.988 176.505 324.988C164.754 324.988 156.001 328.132 150.248 334.42C144.495 340.585 141.618 348.229 141.618 357.353C141.618 367.216 144.679 375.169 150.799 381.21C157.042 387.251 166.529 390.272 179.259 390.272C184.768 390.272 190.093 389.471 195.234 387.868C200.497 386.265 204.904 383.491 208.454 379.546H172.649V349.585ZM330.915 327.392C337.892 327.516 348.664 327.947 363.231 328.687V291.884H256.551V328.687C270.628 327.947 281.339 327.516 288.683 327.392V390.642C281.339 390.519 270.628 390.087 256.551 389.347V426.151H363.231V389.347C348.787 390.087 338.015 390.519 330.915 390.642V327.392ZM477.464 291.699H523V365.305C522.755 383.429 516.573 398.409 504.455 410.246C492.459 422.082 472.2 428 443.679 428C414.79 428 395.021 422.39 384.371 411.17C373.721 399.827 368.519 384.971 368.764 366.6V291.699H414.3V363.641C414.3 369.066 414.667 373.504 415.402 376.956C416.259 380.285 418.829 383.429 423.114 386.388C427.52 389.347 434.559 390.827 444.229 390.827C454.757 390.827 462.468 389.347 467.365 386.388C472.261 383.306 475.138 379.915 475.995 376.217C476.974 372.518 477.464 367.771 477.464 361.976V291.699ZM106.338 522.956C103.892 527.878 100.78 533.19 97 538.894C107.228 544.151 118.734 548.177 131.518 550.974C144.302 553.658 156.864 555 169.204 555C192.216 555 209.392 551.589 220.731 544.766C232.07 537.832 237.74 526.535 237.74 510.877C237.74 499.693 232.404 491.416 221.731 486.048C211.059 480.567 193.939 477.827 170.371 477.827C160.811 477.827 153.474 477.044 148.36 475.478C143.357 473.801 140.856 471.62 140.856 468.935C140.856 466.251 142.69 464.238 146.359 462.896C150.028 461.442 157.142 460.715 167.703 460.715C176.486 460.715 186.602 462.28 198.053 465.412C209.503 468.432 218.063 472.235 223.733 476.82C224.177 475.702 224.733 474.024 225.4 471.787C228.957 461.162 232.348 452.159 235.572 444.777C225.789 439.632 214.783 435.605 202.555 432.697C190.437 429.678 178.598 428.168 167.036 428.168C147.137 428.168 130.962 431.747 118.511 438.905C106.06 446.063 99.8348 457.192 99.8348 472.291C99.8348 482.916 104.949 490.633 115.176 495.443C125.404 500.14 141.857 502.489 164.535 502.489C185.213 502.489 195.551 505.9 195.551 512.723C195.551 514.624 193.661 516.413 189.882 518.091C186.102 519.657 179.598 520.44 170.371 520.44C161.367 520.44 151.64 519.154 141.19 516.581C130.74 514.009 121.568 510.43 113.675 505.844C111.341 512.331 108.895 518.035 106.338 522.956ZM378.195 466.72C361.123 466.181 344.531 465.857 328.418 465.748V553.322H286.73V465.748C270.166 465.86 253.268 466.195 236.037 466.754V431.523H379.278V463.821C382.246 456.475 386.575 450.127 392.265 444.777C404.272 433.592 423.059 428 448.628 428C474.308 428 493.096 433.592 504.991 444.777C516.997 455.961 523 471.508 523 491.416C523 511.66 517.052 527.318 505.157 538.391C493.262 549.464 474.419 555 448.628 555C423.17 555 404.438 549.464 392.432 538.391C380.426 527.207 374.423 511.548 374.423 491.416C374.423 482.262 375.68 474.03 378.195 466.72Z" fill="white"/>
<path d="M273.567 196.902V216.028H296.2C305.701 216.028 312.854 215.748 317.66 215.189C322.577 214.518 325.986 213.511 327.886 212.169C329.786 210.827 330.736 208.87 330.736 206.297C330.736 203.837 329.842 201.935 328.054 200.593C326.266 199.251 322.913 198.3 317.995 197.741C313.077 197.182 305.812 196.902 296.2 196.902H273.567Z" stroke="white" stroke-width="40" mask="url(#path-1-inside-1_75_63)"/>
<path d="M475.052 246.729C469.575 251.427 460.634 253.775 448.228 253.775C435.933 253.775 427.048 251.371 421.571 246.561C416.095 241.752 413.357 234.37 413.357 224.416C413.357 214.574 416.095 207.248 421.571 202.439C427.048 197.629 435.933 195.225 448.228 195.225C460.634 195.225 469.575 197.629 475.052 202.439C480.529 207.248 483.267 214.574 483.267 224.416C483.267 234.482 480.529 241.92 475.052 246.729Z" stroke="white" stroke-width="40" mask="url(#path-1-inside-1_75_63)"/>
<path d="M475.309 513.729C469.861 518.427 460.968 520.776 448.628 520.776C436.399 520.776 427.562 518.371 422.114 513.561C416.667 508.752 413.943 501.37 413.943 491.416C413.943 481.574 416.667 474.248 422.114 469.439C427.562 464.629 436.399 462.225 448.628 462.225C460.968 462.225 469.861 464.629 475.309 469.439C480.756 474.248 483.479 481.574 483.479 491.416C483.479 501.482 480.756 508.92 475.309 513.729Z" stroke="white" stroke-width="40" mask="url(#path-1-inside-1_75_63)"/>
<path fill-rule="evenodd" clip-rule="evenodd" d="M310 32H69L16 155L69 301.5L0.5 511L69 571L551 604L578.5 301.5L551 32L444.5 0L310 32ZM362.31 49H324.098V107.263C324.098 112.067 323.687 116.003 322.866 119.069C322.147 122.136 319.733 124.947 315.624 127.502C311.515 129.955 305.044 131.182 296.21 131.182C288.096 131.182 282.189 129.955 278.492 127.502C274.896 125.049 272.739 122.442 272.02 119.682C271.404 116.82 271.096 113.141 271.096 108.643V49H232.885V111.096C232.679 126.327 237.045 138.644 245.981 148.047C254.918 157.349 271.507 162 295.748 162C319.681 162 336.681 157.094 346.748 147.281C356.917 137.468 362.104 125.049 362.31 110.023V49ZM227.192 104.81C227.192 85.0823 227.552 66.5812 228.271 49.3067H190.522L193.141 135.322L155.7 49.3067H99C99.8217 69.1366 100.233 87.6377 100.233 104.81C100.233 122.085 99.8217 140.637 99 160.467H138.598L135.824 76.7517L173.111 160.467H228.271C227.552 143.192 227.192 124.64 227.192 104.81ZM523 160.467H483.094L480.629 81.0448L465.221 160.467H424.853L409.137 81.6581L406.826 160.467H366.92L378.938 49.1533H431.324L444.729 121.676L456.439 49.1533H510.982L523 160.467ZM228.941 253.775C209.829 254.782 179.037 255.397 136.566 255.621V238.173C141.93 238.061 149.866 238.005 160.372 238.005C178.143 238.005 196.529 238.341 215.529 239.012V210.156C196.529 210.827 178.143 211.162 160.372 211.162C149.866 211.162 141.93 211.107 136.566 210.995V194.889H227.264V164.523H97C97.8941 186.221 98.3412 206.521 98.3412 225.423C98.3412 244.325 97.8941 264.624 97 286.322H227.264C227.264 278.941 227.32 272.845 227.432 268.036C227.656 263.115 228.159 258.361 228.941 253.775ZM368.625 205.123C368.625 214.853 366.222 223.074 361.416 229.785C356.722 236.495 348.619 241.361 337.107 244.38C338.448 246.17 339.398 247.568 339.957 248.575L367.116 286.322H321.516C316.598 277.151 308.83 264.177 298.212 247.4H273.567V286.322H234.002C234.896 264.624 235.343 244.325 235.343 225.423C235.343 206.521 234.896 186.221 234.002 164.523H273.567V164.691H307.936C330.513 164.691 346.272 168.326 355.213 175.596C364.155 182.866 368.625 192.708 368.625 205.123ZM391.73 271.391C403.8 282.464 422.633 288 448.228 288C474.158 288 493.102 282.464 505.061 271.391C517.02 260.318 523 244.66 523 224.416C523 204.508 516.965 188.961 504.894 177.777C492.935 166.592 474.046 161 448.228 161C422.521 161 403.633 166.592 391.562 177.777C379.603 188.961 373.623 204.508 373.623 224.416C373.623 244.548 379.659 260.207 391.73 271.391ZM172.649 349.585H251.053V426.151H218.736L214.881 393.416C211.208 405.129 204.659 413.821 195.234 419.493C185.808 425.164 174.302 428 160.714 428C148.351 428 137.334 425.226 127.664 419.678C118.116 414.129 110.587 406.177 105.079 395.82C99.693 385.464 97 373.381 97 359.572C97 337.502 103.549 320.056 116.647 307.234C129.745 294.411 150.126 288 177.79 288C193.581 288 207.475 290.589 219.471 295.768C231.589 300.946 241.872 308.96 250.318 319.81C244.81 322.646 234.038 328.317 218.002 336.824L213.412 339.413C208.638 334.605 203.068 331.03 196.703 328.687C190.337 326.221 183.605 324.988 176.505 324.988C164.754 324.988 156.001 328.132 150.248 334.42C144.495 340.585 141.618 348.229 141.618 357.353C141.618 367.216 144.679 375.169 150.799 381.21C157.042 387.251 166.529 390.272 179.259 390.272C184.768 390.272 190.093 389.471 195.234 387.868C200.497 386.265 204.904 383.491 208.454 379.546H172.649V349.585ZM330.915 327.392C337.892 327.516 348.664 327.947 363.231 328.687V291.884H256.551V328.687C270.628 327.947 281.339 327.516 288.683 327.392V390.642C281.339 390.519 270.628 390.087 256.551 389.347V426.151H363.231V389.347C348.787 390.087 338.015 390.519 330.915 390.642V327.392ZM477.464 291.699H523V365.305C522.755 383.429 516.573 398.409 504.455 410.246C492.459 422.082 472.2 428 443.679 428C414.79 428 395.021 422.39 384.371 411.17C373.721 399.827 368.519 384.971 368.764 366.6V291.699H414.3V363.641C414.3 369.066 414.667 373.504 415.402 376.956C416.259 380.285 418.829 383.429 423.114 386.388C427.52 389.347 434.559 390.827 444.229 390.827C454.757 390.827 462.468 389.347 467.365 386.388C472.261 383.306 475.138 379.915 475.995 376.217C476.974 372.518 477.464 367.771 477.464 361.976V291.699ZM106.338 522.956C103.892 527.878 100.78 533.19 97 538.894C107.228 544.151 118.734 548.177 131.518 550.974C144.302 553.658 156.864 555 169.204 555C192.216 555 209.392 551.589 220.731 544.766C232.07 537.832 237.74 526.535 237.74 510.877C237.74 499.693 232.404 491.416 221.731 486.048C211.059 480.567 193.939 477.827 170.371 477.827C160.811 477.827 153.474 477.044 148.36 475.478C143.357 473.801 140.856 471.62 140.856 468.935C140.856 466.251 142.69 464.238 146.359 462.896C150.028 461.442 157.142 460.715 167.703 460.715C176.486 460.715 186.602 462.28 198.053 465.412C209.503 468.432 218.063 472.235 223.733 476.82C224.177 475.702 224.733 474.024 225.4 471.787C228.957 461.162 232.348 452.159 235.572 444.777C225.789 439.632 214.783 435.605 202.555 432.697C190.437 429.678 178.598 428.168 167.036 428.168C147.137 428.168 130.962 431.747 118.511 438.905C106.06 446.063 99.8348 457.192 99.8348 472.291C99.8348 482.916 104.949 490.633 115.176 495.443C125.404 500.14 141.857 502.489 164.535 502.489C185.213 502.489 195.551 505.9 195.551 512.723C195.551 514.624 193.661 516.413 189.882 518.091C186.102 519.657 179.598 520.44 170.371 520.44C161.367 520.44 151.64 519.154 141.19 516.581C130.74 514.009 121.568 510.43 113.675 505.844C111.341 512.331 108.895 518.035 106.338 522.956ZM378.195 466.72C361.123 466.181 344.531 465.857 328.418 465.748V553.322H286.73V465.748C270.166 465.86 253.268 466.195 236.037 466.754V431.523H379.278V463.821C382.246 456.475 386.575 450.127 392.265 444.777C404.272 433.592 423.059 428 448.628 428C474.308 428 493.096 433.592 504.991 444.777C516.997 455.961 523 471.508 523 491.416C523 511.66 517.052 527.318 505.157 538.391C493.262 549.464 474.419 555 448.628 555C423.17 555 404.438 549.464 392.432 538.391C380.426 527.207 374.423 511.548 374.423 491.416C374.423 482.262 375.68 474.03 378.195 466.72Z" stroke="white" stroke-width="40" mask="url(#path-1-inside-1_75_63)"/>
</svg>
